<?xml version="1.0" standalone="no"?>
<!DOCTYPE svg PUBLIC "-//W3C//DTD SVG 20010904//EN"
 "http://www.w3.org/TR/2001/REC-SVG-20010904/DTD/svg10.dtd">
<svg version="1.0" xmlns="http://www.w3.org/2000/svg"
 width="80.000000pt" height="40.000000pt" viewBox="140.000000 40.000000"
 preserveAspectRatio="xMidYMid meet">

<g transform="translate(0.000000,968.000000) scale(0.100000,-0.100000)"
fill="#000000" stroke="none">
<path d="M0 6115 c0 -2370 3 -3565 10 -3565 7 0 10 613 10 1818 0 999 3 2603
7 3565 6 1626 5 1747 -10 1747 -16 0 -17 -245 -17 -3565z"/>
<path d="M3940 2359 c0 -11 4 -18 10 -14 5 3 7 12 3 20 -7 21 -13 19 -13 -6z"/>
<path d="M4400 2170 c0 -5 7 -10 15 -10 8 0 15 5 15 10 0 6 -7 10 -15 10 -8 0
 -15 -4 -15 -10z"/>
<path d="M3760 2013 c0 -18 6 -33 15 -37 12 -4 14 0 9 22 -10 41 -24 50 -24
15z"/>
<path d="M4630 2020 c0 -5 5 -10 10 -10 6 0 10 5 10 10 0 6 -4 10 -10 10 -5 0
-10 -4 -10 -10z"/>
<path d="M4583 1925 c-9 -10 -8 -14 8 -18 12 -3 19 0 19 8 0 20 -13 25 -27 10z"/>
<path d="M4660 1906 c0 -9 7 -16 16 -16 17 0 14 22 -4 28 -7 2 -12 -3 -12 -12z"/>
<path d="M4510 1885 c-13 -16 -7 -30 13 -30 16 -1 26 15 20 32 -7 17 -18 17
-33 -2z"/>
<path d="M4748 1844 c-8 -8 3 -44 13 -44 5 0 9 11 9 25 0 24 -10 32 -22 19z"/>
<path d="M4806 1813 c-11 -11 -6 -23 9 -23 8 0 15 4 15 9 0 13 -16 22 -24 14z"/>
<path d="M4580 1769 c0 -5 5 -7 10 -4 6 3 10 8 10 11 0 2 -4 4 -10 4 -5 0 -10
-5 -10 -11z"/>
<path d="M4517 1714 c-8 -8 3 -34 14 -34 11 0 12 27 0 34 -4 3 -11 3 -14 0z"/>
<path d="M4501 1674 c0 -11 3 -14 6 -6 3 7 2 16 -1 19 -3 4 -6 -2 -5 -13z"/>
<path d="M4890 1665 c0 -8 4 -15 10 -15 5 0 7 7 4 15 -4 8 -8 15 -10 15 -2 0
-4 -7 -4 -15z"/>
<path d="M0 837 c0 -765 1 -837 16 -837 15 0 16 69 12 825 -3 631 -6 827 -16
837 -9 9 -12 -167 -12 -825z"/>
<path d="M4549 1570 c7 -38 26 -40 26 -3 0 18 -6 29 -16 31 -14 2 -16 -3 -10
-28z"/>
<path d="M4980 1558 c1 -38 22 -66 44 -58 17 6 18 7 3 13 -11 4 -17 18 -17 37
0 20 -5 30 -15 30 -9 0 -15 -9 -15 -22z"/>
<path d="M4490 1440 c0 -5 14 -10 30 -10 17 0 30 5 30 10 0 6 -13 10 -30 10
-16 0 -30 -4 -30 -10z"/>
<path d="M4422 1398 c5 -15 37 -18 41 -3 1 6 -9 12 -22 13 -16 3 -22 -1 -19
-10z"/>
<path d="M4410 1335 c-20 -24 -6 -35 19 -16 19 15 21 19 8 24 -9 3 -21 -1 -27
-8z"/>
<path d="M4330 1224 c0 -8 5 -12 10 -9 6 3 10 10 10 16 0 5 -4 9 -10 9 -5 0
-10 -7 -10 -16z"/>
</g>
</svg>
