<?xml version="1.0" standalone="no"?>
<!DOCTYPE svg PUBLIC "-//W3C//DTD SVG 20010904//EN"
 "http://www.w3.org/TR/2001/REC-SVG-20010904/DTD/svg10.dtd">
<svg version="1.0" xmlns="http://www.w3.org/2000/svg"
 width="979.000000pt" height="968.000000pt" viewBox="0 0 979.000000 968.000000"
 preserveAspectRatio="xMidYMid meet">
<metadata>
Created by potrace 1.16, written by Peter Selinger 2001-2019
</metadata>
<g transform="translate(0.000000,968.000000) scale(0.100000,-0.100000)"
fill="green" stroke="none">
<path d="M0 6115 c0 -2370 3 -3565 10 -3565 7 0 10 613 10 1818 0 999 3 2603
7 3565 6 1626 5 1747 -10 1747 -16 0 -17 -245 -17 -3565z"/>
<path d="M0 837 c0 -765 1 -837 16 -837 15 0 16 69 12 825 -3 631 -6 827 -16
837 -9 9 -12 -167 -12 -825z"/>
</g>
</svg>
