<?xml version="1.0" standalone="no"?>
<!DOCTYPE svg PUBLIC "-//W3C//DTD SVG 20010904//EN"
 "http://www.w3.org/TR/2001/REC-SVG-20010904/DTD/svg10.dtd">
<svg version="1.0" xmlns="http://www.w3.org/2000/svg"
 width="80.000000pt" height="80.000000pt" viewBox="0 0 221.000000 228.000000"
 preserveAspectRatio="xMidYMid meet">
<metadata>
Created by potrace 1.16, written by koi bhi 2001-2019
</metadata>
<g transform="translate(0.000000,228.000000) scale(0.100000,-0.100000)"
fill="green" stroke="none">
<path d="M1252 1923 c4 -16 2 -20 -8 -16 -8 3 -20 0 -28 -6 -7 -6 -17 -7 -21
-3 -5 4 -5 -1 -2 -10 4 -11 2 -18 -5 -18 -6 0 -8 -3 -5 -7 4 -3 1 -13 -6 -21
-9 -13 -9 -14 1 -8 8 5 12 1 12 -12 0 -14 9 -21 32 -26 17 -3 29 -9 25 -12 -3
-3 -23 0 -44 7 -52 17 -72 18 -66 2 3 -7 -1 -13 -8 -13 -7 0 -25 -14 -41 -32
-21 -24 -28 -43 -30 -77 -1 -37 -2 -40 -5 -13 -2 17 -8 32 -12 32 -5 0 -7 -12
-5 -27 12 -111 14 -146 6 -133 -5 8 -12 45 -16 82 -8 87 -12 96 -42 96 -27 0
-28 -2 -14 -29 8 -13 7 -19 0 -19 -12 0 -45 -29 -39 -34 2 -1 23 -8 47 -15 47
-13 53 -25 20 -41 -22 -11 -22 -10 -4 4 16 13 17 16 4 21 -8 3 -19 5 -24 3 -5
-2 -26 8 -46 20 -21 13 -42 21 -47 18 -5 -4 -12 -2 -16 4 -4 6 -11 7 -17 4 -6
-4 -8 -3 -5 3 4 6 -1 19 -9 29 -14 18 -15 17 -11 -13 2 -18 0 -33 -5 -33 -4 0
-8 -15 -8 -32 0 -18 -4 -40 -9 -47 -6 -10 -8 -1 -4 26 5 36 3 41 -17 46 -13 3
-31 2 -40 -3 -10 -5 -21 -6 -25 -2 -5 4 -5 1 -1 -5 4 -8 1 -13 -9 -13 -9 0
-13 -4 -10 -10 3 -5 -1 -10 -10 -10 -10 0 -13 -5 -9 -12 9 -14 -26 10 -38 27
-4 6 -8 2 -8 -7 0 -10 -7 -18 -16 -18 -8 0 -12 5 -9 10 3 6 1 10 -6 10 -6 0
-9 -8 -6 -20 4 -15 -2 -24 -24 -35 -16 -9 -31 -15 -34 -15 -16 1 -55 -35 -55
-52 0 -11 -4 -16 -11 -12 -8 4 -9 0 -4 -15 4 -13 2 -21 -5 -21 -6 0 -9 -4 -6
-9 5 -8 -14 -18 -67 -35 -17 -5 -17 -7 -3 -22 9 -8 16 -25 16 -36 0 -16 -5
-19 -21 -15 -15 4 -23 0 -26 -13 -4 -15 -9 -17 -23 -10 -25 14 -27 13 -33 -11
-4 -15 0 -23 14 -26 21 -6 24 -16 9 -43 -8 -15 -6 -17 11 -13 18 5 19 2 13
-23 -4 -16 -10 -33 -14 -39 -10 -13 -10 -66 0 -60 4 3 7 -7 7 -21 1 -16 -3
-21 -7 -14 -9 14 -51 10 -50 -5 0 -5 9 -10 19 -9 13 0 16 -6 13 -23 -5 -25
-32 -32 -32 -9 0 27 -19 27 -47 2 -15 -15 -22 -26 -16 -26 7 0 15 5 18 10 12
20 26 10 15 -10 -6 -12 -7 -20 -1 -20 5 0 11 6 14 13 3 9 7 9 19 0 8 -7 18
-10 21 -6 4 3 7 0 7 -8 0 -12 2 -12 9 0 7 10 9 4 8 -19 -1 -20 3 -35 12 -38 9
-3 11 0 6 9 -4 8 4 1 18 -16 13 -16 22 -35 20 -42 -9 -22 26 -83 42 -76 11 4
13 1 9 -12 -6 -16 -3 -17 29 -11 21 4 38 2 42 -4 3 -5 1 -10 -5 -10 -8 0 -8
-6 0 -20 6 -12 8 -31 5 -43 -5 -16 -4 -18 3 -8 7 9 19 11 38 7 18 -5 24 -10
16 -15 -7 -4 -10 -15 -6 -25 5 -14 9 -15 15 -4 7 10 9 9 9 -4 0 -10 5 -18 10
-18 6 0 10 -5 10 -10 0 -7 -6 -7 -19 0 -28 14 -35 12 -17 -5 8 -8 22 -15 30
-15 9 0 16 -4 16 -10 0 -5 7 -10 16 -10 8 0 12 -5 9 -10 -5 -8 -11 -7 -21 1
-16 13 -30 6 -19 -10 3 -6 20 -11 37 -11 17 0 28 -3 25 -7 -16 -15 15 -30 57
-26 25 3 47 0 50 -6 5 -8 13 -8 26 -1 20 11 47 -11 36 -29 -3 -5 7 -12 24 -16
17 -4 27 -11 24 -17 -3 -5 4 -4 16 4 17 10 24 10 27 1 2 -7 11 -9 19 -6 9 3
13 0 11 -8 -2 -8 -2 -11 0 -6 7 11 33 9 33 -3 0 -5 7 -10 16 -10 11 0 15 -6
11 -19 -7 -27 28 -19 59 14 24 26 44 33 44 15 0 -7 6 -7 18 -2 9 5 27 8 40 6
14 -3 22 1 22 10 0 12 7 13 32 5 41 -11 49 -11 45 0 -2 10 41 51 55 51 4 0 8
-5 8 -11 0 -6 10 -10 23 -9 12 1 31 2 42 1 18 -1 19 -2 3 -12 -10 -5 -18 -16
-18 -23 0 -21 32 -29 48 -13 12 13 11 19 -4 43 -17 26 -17 28 -1 15 14 -11 20
-11 32 -1 12 10 18 10 30 0 12 -10 19 -10 27 -2 9 9 8 12 -6 12 -14 0 -17 5
-12 23 3 12 6 25 6 30 0 14 20 7 20 -8 0 -17 27 -20 50 -5 12 8 12 10 -3 16
-26 9 -21 24 9 24 17 0 23 4 18 13 -5 7 0 6 11 -3 10 -8 16 -10 12 -4 -4 7 0
15 9 18 8 3 12 10 9 16 -3 5 1 10 9 10 9 0 16 5 16 10 0 6 -4 10 -10 10 -5 0
-10 5 -10 11 0 5 5 7 12 3 8 -5 9 -2 5 9 -4 11 -1 17 8 17 8 0 15 5 15 10 0 6
-6 10 -14 10 -9 0 -12 7 -9 20 3 11 9 20 13 20 5 0 11 12 15 27 9 41 34 71 44
55 10 -16 44 -4 37 14 -3 8 0 11 10 7 10 -4 12 0 8 11 -3 9 -1 16 5 16 6 0 11
7 11 15 0 8 5 15 10 15 6 0 10 -5 10 -11 0 -6 7 -9 15 -5 8 3 15 1 15 -4 0 -6
4 -10 9 -10 4 0 6 11 3 25 -3 20 0 25 17 25 20 0 20 1 4 19 -10 10 -20 18 -23
18 -19 1 -21 5 -10 18 7 8 17 12 23 8 6 -3 7 -1 3 5 -4 7 0 12 11 13 16 0 16
1 -2 8 -12 5 -23 4 -28 -3 -6 -7 -7 -6 -4 4 2 8 12 15 23 15 10 1 18 6 17 12
-1 6 4 16 12 23 7 6 11 18 8 26 -3 8 -1 14 4 14 5 0 9 9 9 19 0 16 -4 18 -21
9 l-20 -11 20 23 c14 16 16 24 8 27 -7 3 -13 11 -13 19 0 9 4 13 9 9 5 -3 12
-1 16 5 3 5 0 10 -9 10 -9 0 -17 14 -21 40 -4 22 -16 51 -27 65 -14 18 -17 29
-10 38 11 13 -17 57 -36 57 -15 0 -22 26 -9 39 8 8 6 11 -8 11 -19 1 -19 1 -1
15 19 15 14 35 -10 35 -8 0 -14 5 -14 11 0 7 -10 9 -27 5 -16 -4 -23 -3 -16 2
19 13 -42 66 -69 59 -11 -3 -27 0 -35 8 -8 8 -22 19 -31 25 -15 8 -15 11 -2
20 13 8 13 10 -2 10 -10 0 -18 5 -18 11 0 6 -7 8 -16 5 -8 -3 -12 -2 -9 4 10
16 -24 24 -41 9 -8 -7 -14 -8 -13 -3 6 33 -26 50 -37 19 -4 -8 -10 -12 -15 -9
-5 3 -9 0 -9 -6 0 -6 -5 -8 -11 -4 -7 4 -21 7 -33 8 -14 1 -20 7 -18 19 3 16
-2 15 -37 -8 -22 -14 -43 -25 -45 -25 -3 0 -38 -24 -79 -52 -41 -29 -83 -58
-93 -64 -15 -10 -17 -14 -6 -25 6 -7 12 -24 12 -38 -1 -23 -2 -24 -11 -8 -5 9
-7 23 -3 30 4 6 3 9 -1 4 -5 -4 -9 -38 -10 -75 -1 -45 -8 -82 -22 -113 l-21
-47 24 -11 c13 -6 31 -8 39 -5 9 4 15 0 15 -8 0 -10 9 -13 30 -10 17 2 30 10
30 18 0 8 4 14 10 14 5 0 7 -6 4 -14 -6 -16 22 -30 31 -16 4 6 11 10 17 10 7
0 6 -5 -1 -14 -10 -11 -8 -15 6 -20 10 -3 1 -3 -20 0 -24 3 -37 1 -33 -4 3 -6
22 -12 41 -14 26 -3 36 0 40 13 3 9 12 20 20 23 18 7 20 -5 3 -22 -9 -9 -8
-12 6 -12 22 0 56 18 56 30 0 5 -8 11 -17 14 -10 3 -6 4 10 2 15 -2 30 0 32 4
3 5 15 6 27 2 14 -3 19 -1 14 6 -4 7 1 10 14 7 11 -2 23 1 26 7 4 7 2 8 -4 4
-7 -4 -11 3 -9 23 2 27 3 28 19 14 10 -9 15 -20 12 -25 -3 -5 -1 -15 6 -23 9
-11 5 -16 -22 -23 -18 -5 -64 -22 -103 -36 -59 -23 -79 -26 -129 -20 -66 7
-110 23 -167 61 l-38 25 -49 -41 c-27 -22 -55 -47 -62 -56 -7 -8 -21 -15 -31
-15 -38 0 -115 -59 -167 -130 -29 -38 -57 -70 -62 -70 -6 0 -10 39 -10 91 0
86 1 90 17 73 13 -13 14 -19 5 -22 -6 -2 -12 -8 -12 -13 0 -4 7 -6 15 -3 12 5
14 2 8 -12 -6 -17 -5 -18 12 -4 17 14 18 13 12 -2 -9 -24 0 -23 13 2 6 11 7
20 3 19 -19 -3 -33 2 -33 12 0 5 4 8 9 5 5 -3 14 9 21 27 8 17 20 40 28 49 16
19 25 68 13 68 -4 0 -8 7 -8 15 0 23 14 18 21 -7 5 -22 6 -22 22 -6 15 15 15
19 3 34 -8 10 -9 15 -2 11 17 -10 43 3 42 22 0 9 -3 11 -5 4 -3 -7 -13 -9 -21
-6 -14 6 -14 8 3 14 29 12 46 10 38 -3 -4 -7 -3 -8 5 -4 6 4 9 11 6 16 -8 13
6 41 17 34 5 -3 27 12 49 34 22 23 48 44 59 47 25 8 25 17 0 40 -21 19 -86 29
-96 14 -3 -5 -29 -10 -57 -11 -43 -1 -46 -2 -14 -5 37 -4 52 -22 20 -24 -10
-1 -25 -2 -33 -3 -8 0 -25 5 -36 12 -18 11 -23 10 -27 -3 -4 -8 -14 -15 -23
-15 -13 0 -14 -3 -5 -14 10 -11 8 -16 -8 -21 -22 -7 -47 -43 -37 -52 3 -4 17
-1 30 5 18 8 28 7 43 -3 17 -14 17 -14 -7 -16 -14 -1 -30 -2 -37 -2 -6 0 -10
-8 -8 -19 2 -10 0 -16 -4 -14 -4 3 -15 -11 -24 -30 -9 -19 -24 -37 -32 -40
-13 -5 -13 -8 0 -27 8 -12 14 -33 14 -47 l-2 -25 -4 25 c-3 14 -17 38 -31 54
-15 16 -21 26 -14 22 15 -9 62 86 62 128 0 15 11 41 25 58 14 16 25 35 25 42
0 6 13 20 30 29 16 10 30 21 30 25 0 4 10 8 23 9 12 1 46 5 74 9 59 7 109 -8
118 -36 3 -9 14 -25 25 -35 18 -16 20 -17 20 -2 0 10 6 17 14 17 7 0 16 9 19
20 3 11 2 18 -3 15 -4 -2 -10 12 -14 33 -9 56 -5 84 5 33 10 -53 17 -61 33
-39 7 10 16 15 20 11 3 -4 22 9 41 27 34 33 47 58 23 44 -8 -4 -9 -3 -5 2 5 5
14 9 20 9 29 2 73 20 92 37 20 19 20 19 0 12 -11 -4 -26 -12 -33 -17 -9 -7
-11 -6 -6 7 4 10 1 16 -7 17 -8 1 -1 4 15 8 32 7 48 31 21 31 -9 0 -14 4 -10
10 3 5 12 7 20 3 20 -7 67 5 60 17 -3 5 0 12 7 16 8 5 6 10 -8 15 -17 7 -16 8
6 9 14 2 28 2 31 2 4 -1 5 8 2 19 -4 15 -8 17 -19 8 -20 -16 -17 1 4 24 16 20
16 20 -2 13 -11 -4 -22 -2 -27 5 -5 9 -12 8 -24 -5 -10 -9 -24 -15 -32 -12 -8
3 -19 6 -24 6 -5 0 -9 5 -9 10 0 6 6 10 14 10 8 0 21 7 29 15 8 8 30 15 49 17
18 1 42 8 53 16 l20 14 -20 -7 c-42 -14 -126 -17 -142 -3 -14 11 -16 10 -11
-9z"/>
</g>
</svg>
